<?xml version="1.0" encoding="UTF-8" standalone="no"?>
<svg
   height="350.19073"
   width="350.47"
   version="1.1"
   id="38c41294-d788-11f0-a72c-0242ac110004"
   xmlns="http://www.w3.org/2000/svg"
   xmlns:svg="http://www.w3.org/2000/svg">
  <defs
     id="defs1" />
  <path
     style="display:inline;fill:#bed04a;fill-opacity:1;stroke:#000000;stroke-width:5;stroke-dasharray:none"
     d="m 147.39348,345.80992 c -20.09394,-2.82796 -48.338391,-14.36953 -68.673701,-28.06222 -15.71023,-10.57842 -35.51075,-30.15447 -44.96068,-44.45098 -10.74546,-16.2565 -17.686,-32.35679 -23.9698498,-55.60404 -3.38878,-12.53688 -2.92444,-48.0484 0.8126098,-62.1465 6.68887,-25.23386 20.84192,-47.53269 40.64028,-64.030757 11.19172,-9.32612 31.46364,-20.42703 42.99973,-23.54667 2.69846,-0.72974 8.954001,-2.491 13.901191,-3.91393 10.82673,-3.11401 42.72443,-3.54305 54.78427,-0.73686 52.64328,12.24949 83.94394,44.189357 84.773,86.504197 0.2376,12.12679 -0.20596,14.5718 -3.47498,19.15492 -11.12473,15.59673 -47.71807,3.99781 -79.78499,-25.28929 -13.14776,-12.00801 -13.49606,-12.27246 -20.31775,-15.42602 -26.44575,-12.22547 -53.892471,-12.06459 -79.494901,0.46596 -28.80422,14.0976 -44.79811,39.6446 -44.79811,71.55595 0,16.51823 3.06788,28.42863 11.21154,43.52645 7.37127,13.66585 10.75074,18.04566 23.13258,29.97984 37.27331,35.92573 90.083431,48.21891 138.002821,32.12441 13.74734,-4.61727 33.28437,-14.52439 36.98866,-18.75675 0.44975,-0.51385 3.38359,-2.72875 6.51965,-4.92199 10.98117,-7.67978 26.55345,-25.32171 35.70014,-40.44486 2.8643,-4.73584 5.20781,-9.04029 5.20781,-9.56545 0,-0.52517 1.0005,-3.27391 2.22333,-6.10831 9.56999,-22.18241 11.62448,-32.75028 11.65299,-59.94052 0.0143,-13.65857 -0.8005,-26.48766 -1.92165,-30.25554 -1.07059,-3.59795 -3.16753,-10.58943 -4.65988,-15.53662 -10.25033,-33.980347 -39.21575,-68.326267 -71.07673,-84.279687 -21.42798,-10.72941 -55.83574,-18.68917 -71.1414,-16.45759 -3.59795,0.52459 -11.69335,1.71526 -17.98978,2.64594 -13.49341,1.99448 -32.565821,8.39652 -44.477191,14.92969 -10.42376,5.71724 -12.44303,5.91154 -6.77027,0.65146 6.05972,-5.61889 26.09452,-18.88675 28.519471,-18.88675 1.10687,0 2.25781,-0.56699 2.55764,-1.25997 0.89755,-2.07449 22.57916,-9.7045197 35.49873,-12.4924597 23.20732,-5.00794998 64.84582,-2.72247 86.06856,4.72417 23.34936,8.1928297 43.97797,20.1732897 60.83301,35.3299097 12.21385,10.98311 29.9336,31.82403 29.9336,35.20613 0,1.10088 0.55196,2.24691 1.22657,2.54674 1.75751,0.78111 16.76321,30.743197 16.76321,33.471307 0,1.25403 0.68096,3.55797 1.51323,5.11987 7.63143,14.32152 10.27925,68.6368 4.44366,91.15328 -5.86011,22.61103 -10.28558,33.41616 -22.43921,54.78705 -8.68342,15.26888 -28.77957,36.38216 -46.49195,48.84502 -36.90386,25.96643 -78.10707,35.77506 -123.46526,29.39147 z m 55.60477,-204.78293 c 0,-3.38021 -6.25828,-13.69812 -12.40589,-20.4534 -7.9352,-8.71953 -12.43562,-11.22044 -7.99466,-4.44269 1.41401,2.15806 2.68687,6.83101 2.82856,10.38434 0.23407,5.86968 0.93729,6.83927 7.68825,10.60045 7.37069,4.10646 9.88374,5.10096 9.88374,3.9113 z"
     id="path4" />
  <path
     style="display:inline;fill:#e3dda1;fill-opacity:1;stroke:none;stroke-width:0;stroke-dasharray:none;stroke-opacity:1"
     d="M 117.95566,306.80177 C 75.768499,295.4773 38.746809,263.47523 26.434849,227.68989 7.9013792,173.82144 47.118599,121.54021 105.57788,122.18279 c 8.15702,0.0897 16.6708,0.68969 18.91952,1.3334 3.73255,1.06846 3.37651,1.4073 -4.08858,3.89108 -4.49745,1.49638 -15.32993,3.21122 -24.072191,3.81075 -8.74225,0.59952 -15.50631,1.71896 -15.03125,2.48763 0.47507,0.76868 7.98265,1.3976 16.68351,1.3976 h 15.819751 l -5.6948,3.78032 c -9.637461,6.39755 -19.733451,9.30315 -32.325291,9.30315 -11.51839,0 -15.4982,1.8989 -8.12249,3.87551 2.02385,0.54237 9.3833,0.99618 16.35434,1.00846 6.97104,0.0123 12.67462,0.72691 12.67462,1.58805 0,2.82533 -11.06381,10.46645 -18.27941,12.62451 -3.88841,1.16296 -12.58942,2.22926 -19.33558,2.36956 l -12.26576,0.25509 8.99489,1.24343 c 4.94719,0.68389 14.26159,1.31621 20.69868,1.40517 10.65325,0.14722 11.63087,0.44057 10.89143,3.26818 -0.44679,1.70854 -2.91476,5.12068 -5.48438,7.58254 -3.81048,3.65066 -7.1007,4.80126 -17.84204,6.23938 -7.2435,0.9698 -13.17,2.34131 -13.17,3.04778 0,0.70648 7.35946,1.28451 16.35435,1.28451 15.03162,0 16.35434,0.25372 16.35434,3.13711 0,9.18055 -6.71816,13.21723 -21.99715,13.21723 -6.05073,0 -10.71154,0.71161 -10.71154,1.63543 0,0.97453 6.22458,1.63544 15.40287,1.63544 17.94742,0 20.57669,0.71383 20.57669,5.58641 0,6.14119 -3.6043,9.00962 -13.08347,10.41226 l -8.99489,1.33098 12.99057,1.15363 c 13.70263,1.21687 15.93362,2.5815 15.23547,9.3191 -0.36892,3.5603 -1.32176,4.15357 -7.37426,4.59148 -11.18998,0.80962 -7.98102,3.5857 4.14484,3.5857 10.684411,0 11.206881,0.18867 14.104081,5.09324 2.49563,4.22476 2.62547,5.34025 0.76147,6.54174 -1.88095,1.21242 -1.84738,1.71094 0.20597,3.05888 1.34923,0.88572 3.99642,1.62166 5.88264,1.63544 1.88622,0.0138 5.19798,1.56488 7.35946,3.4469 13.0409,11.35485 36.06756,20.2557 57.08511,22.06599 17.87805,1.53989 45.41392,-3.41698 53.59647,-9.64817 1.1461,-0.87278 2.45404,-1.21665 2.90651,-0.76416 1.553,1.55297 -10.87998,9.74579 -24.41517,16.08858 -20.28748,9.50704 -29.98686,11.69115 -54.98742,12.38206 -18.32136,0.50631 -24.16559,0.0499 -34.34413,-2.68239 z"
     id="path5" />
</svg>
